<svg viewBox="0 0 1000 1000" xmlns="http://www.w3.org/2000/svg">    
    <!-- background cadran -->
    <circle cx="500" cy="500" r="500" fill="whitesmoke" stroke="none"/>
    
    <!-- text cadran -->
    <g id="brand" text-anchor="middle" font-size="25" font-family="helvetica neue">
        <text x="500" y="725" >edam ssiws</text>
    </g>
    
    <!-- marqueurs heures -->
    <g id="cadranHours" stroke-linecap="" stroke-dasharray="0 390 90 10" stroke="black" stroke-width="20">
        <line id="1h" x1="500" y1="500" x2="500" y2="0"  transform="rotate(30, 500, 500)"/>
        <line id="2h" x1="500" y1="500" x2="500" y2="0"  transform="rotate(60, 500, 500)"/>
        <line id="3h" x1="500" y1="500" x2="500" y2="0"  transform="rotate(90, 500, 500)"/>
        <line id="4h" x1="500" y1="500" x2="500" y2="0"  transform="rotate(120, 500, 500)"/>
        <line id="5h" x1="500" y1="500" x2="500" y2="0"  transform="rotate(150, 500, 500)"/>
        <line id="6h" x1="500" y1="500" x2="500" y2="0"  transform="rotate(180, 500, 500)"/>
        <line id="7h" x1="500" y1="500" x2="500" y2="0"  transform="rotate(210, 500, 500)"/>
        <line id="8h" x1="500" y1="500" x2="500" y2="0"  transform="rotate(240, 500, 500)"/>
        <line id="9h" x1="500" y1="500" x2="500" y2="0"  transform="rotate(270, 500, 500)"/>
        <line id="10h" x1="500" y1="500" x2="500" y2="0"  transform="rotate(300, 500, 500)"/>
        <line id="11h" x1="500" y1="500" x2="500" y2="0"  transform="rotate(330, 500, 500)"/>
        <line id="12h" x1="500" y1="500" x2="500" y2="0"  transform="rotate(360, 500, 500)"/>
    </g>
    
    <!-- marqueurs minutes -->
    <g id="cadranMinutes" stroke-linecap="" stroke-dasharray="0 435 45 10" stroke="black" stroke-width="10">
        <line id="1" x1="500" y1="500" x2="500" y2="0"  transform="rotate(6, 500, 500)"/>
        <line id="2" x1="500" y1="500" x2="500" y2="0"  transform="rotate(12, 500, 500)"/>
        <line id="3" x1="500" y1="500" x2="500" y2="0"  transform="rotate(18, 500, 500)"/>
        <line id="4" x1="500" y1="500" x2="500" y2="0"  transform="rotate(24, 500, 500)"/>
        <line id="5" x1="500" y1="500" x2="500" y2="0"  transform="rotate(30, 500, 500)"/>
        <line id="1" x1="500" y1="500" x2="500" y2="0"  transform="rotate(36, 500, 500)"/>
        <line id="2" x1="500" y1="500" x2="500" y2="0"  transform="rotate(42, 500, 500)"/>
        <line id="3" x1="500" y1="500" x2="500" y2="0"  transform="rotate(48, 500, 500)"/>
        <line id="4" x1="500" y1="500" x2="500" y2="0"  transform="rotate(54, 500, 500)"/>
        <line id="5" x1="500" y1="500" x2="500" y2="0"  transform="rotate(60, 500, 500)"/>
        <line id="1" x1="500" y1="500" x2="500" y2="0"  transform="rotate(66, 500, 500)"/>
        <line id="2" x1="500" y1="500" x2="500" y2="0"  transform="rotate(72, 500, 500)"/>
        <line id="3" x1="500" y1="500" x2="500" y2="0"  transform="rotate(78, 500, 500)"/>
        <line id="4" x1="500" y1="500" x2="500" y2="0"  transform="rotate(84, 500, 500)"/>
        <line id="5" x1="500" y1="500" x2="500" y2="0"  transform="rotate(90, 500, 500)"/>
        <line id="1" x1="500" y1="500" x2="500" y2="0"  transform="rotate(96, 500, 500)"/>
        <line id="2" x1="500" y1="500" x2="500" y2="0"  transform="rotate(102, 500, 500)"/>
        <line id="3" x1="500" y1="500" x2="500" y2="0"  transform="rotate(108, 500, 500)"/>
        <line id="4" x1="500" y1="500" x2="500" y2="0"  transform="rotate(114, 500, 500)"/>
        <line id="5" x1="500" y1="500" x2="500" y2="0"  transform="rotate(120, 500, 500)"/>
        <line id="1" x1="500" y1="500" x2="500" y2="0"  transform="rotate(126, 500, 500)"/>
        <line id="2" x1="500" y1="500" x2="500" y2="0"  transform="rotate(132, 500, 500)"/>
        <line id="3" x1="500" y1="500" x2="500" y2="0"  transform="rotate(138, 500, 500)"/>
        <line id="4" x1="500" y1="500" x2="500" y2="0"  transform="rotate(144, 500, 500)"/>
        <line id="5" x1="500" y1="500" x2="500" y2="0"  transform="rotate(150, 500, 500)"/>
        <line id="1" x1="500" y1="500" x2="500" y2="0"  transform="rotate(156, 500, 500)"/>
        <line id="2" x1="500" y1="500" x2="500" y2="0"  transform="rotate(162, 500, 500)"/>
        <line id="3" x1="500" y1="500" x2="500" y2="0"  transform="rotate(168, 500, 500)"/>
        <line id="4" x1="500" y1="500" x2="500" y2="0"  transform="rotate(174, 500, 500)"/>
        <line id="5" x1="500" y1="500" x2="500" y2="0"  transform="rotate(180, 500, 500)"/>
        <line id="1" x1="500" y1="500" x2="500" y2="0"  transform="rotate(186, 500, 500)"/>
        <line id="2" x1="500" y1="500" x2="500" y2="0"  transform="rotate(192, 500, 500)"/>
        <line id="3" x1="500" y1="500" x2="500" y2="0"  transform="rotate(198, 500, 500)"/>
        <line id="4" x1="500" y1="500" x2="500" y2="0"  transform="rotate(204, 500, 500)"/>
        <line id="5" x1="500" y1="500" x2="500" y2="0"  transform="rotate(210, 500, 500)"/>
        <line id="1" x1="500" y1="500" x2="500" y2="0"  transform="rotate(216, 500, 500)"/>
        <line id="2" x1="500" y1="500" x2="500" y2="0"  transform="rotate(222, 500, 500)"/>
        <line id="3" x1="500" y1="500" x2="500" y2="0"  transform="rotate(228, 500, 500)"/>
        <line id="4" x1="500" y1="500" x2="500" y2="0"  transform="rotate(234, 500, 500)"/>
        <line id="5" x1="500" y1="500" x2="500" y2="0"  transform="rotate(240, 500, 500)"/>
        <line id="1" x1="500" y1="500" x2="500" y2="0"  transform="rotate(246, 500, 500)"/>
        <line id="2" x1="500" y1="500" x2="500" y2="0"  transform="rotate(252, 500, 500)"/>
        <line id="3" x1="500" y1="500" x2="500" y2="0"  transform="rotate(258, 500, 500)"/>
        <line id="4" x1="500" y1="500" x2="500" y2="0"  transform="rotate(264, 500, 500)"/>
        <line id="5" x1="500" y1="500" x2="500" y2="0"  transform="rotate(270, 500, 500)"/>
        <line id="1" x1="500" y1="500" x2="500" y2="0"  transform="rotate(276, 500, 500)"/>
        <line id="2" x1="500" y1="500" x2="500" y2="0"  transform="rotate(282, 500, 500)"/>
        <line id="3" x1="500" y1="500" x2="500" y2="0"  transform="rotate(288, 500, 500)"/>
        <line id="4" x1="500" y1="500" x2="500" y2="0"  transform="rotate(294, 500, 500)"/>
        <line id="5" x1="500" y1="500" x2="500" y2="0"  transform="rotate(300, 500, 500)"/>
        <line id="5" x1="500" y1="500" x2="500" y2="0"  transform="rotate(306, 500, 500)"/>
        <line id="5" x1="500" y1="500" x2="500" y2="0"  transform="rotate(312, 500, 500)"/>
        <line id="5" x1="500" y1="500" x2="500" y2="0"  transform="rotate(318, 500, 500)"/>
        <line id="5" x1="500" y1="500" x2="500" y2="0"  transform="rotate(324, 500, 500)"/>
        <line id="5" x1="500" y1="500" x2="500" y2="0"  transform="rotate(330, 500, 500)"/>
        <line id="5" x1="500" y1="500" x2="500" y2="0"  transform="rotate(336, 500, 500)"/>
        <line id="5" x1="500" y1="500" x2="500" y2="0"  transform="rotate(342, 500, 500)"/>
        <line id="5" x1="500" y1="500" x2="500" y2="0"  transform="rotate(348, 500, 500)"/>
        <line id="5" x1="500" y1="500" x2="500" y2="0"  transform="rotate(354, 500, 500)"/>
        <line id="5" x1="500" y1="500" x2="500" y2="0"  transform="rotate(360, 500, 500)"/>
    </g>

    <!-- aiguilles heure; minute; secondes -->
    <g id="aiguilles" stroke-linecap="round" stroke-linejoin="round">
        <path d="M 500 500 C 400 400 600 300 500 200" fill="none" stroke="black" stroke-width="50" transform="rotate(300, 500, 500)"/> <!-- ${angleHour} -->
        <line id="minute" x1="500" y1="500" x2="500" y2="100" stroke="rgba(70,70,70,1)" stroke-width="40" transform="rotate(60, 500, 500)"/>   <!-- ${angleMinute} -->
        <path d="M 500 500 L 520 450 L 480 400 L 520 350 L 480 300 L 520 250 L 480 200 L 520 150 L 480 100 L 520 50 L 500 25" fill="none" stroke="red" stroke-width="30" transform="rotate(10, 500, 500)"/>  <!-- ${angleSecond} -->    
    </g>
</svg>
