<?xml version="1.0" encoding="utf-8"?>
<!-- Generator: Adobe Illustrator 24.3.0, SVG Export Plug-In . SVG Version: 6.00 Build 0)  -->
<svg version="1.1" id="Calque_1" xmlns="http://www.w3.org/2000/svg" xmlns:xlink="http://www.w3.org/1999/xlink" x="0px" y="0px"
	 viewBox="0 0 1000 1000" style="enable-background:new 0 0 1000 1000;" xml:space="preserve">
<style type="text/css">
	.st0{fill:#FFFFFF;}
</style>
<g>
	<path class="st0" d="M779.4,688.1c34.1-7.6,50.3-38.8,64.6-68.8c5.7-12,10.6-24.6,12.6-37.7c3.7-24.1-1.5-49.5-10-72
		c-7.2-19.1-20.6-29.4-32-45.6c-28.1-39.7-54.3-79.9-96.6-106.2c-41.7-26-91.6-34.6-140.1-41.7c-32.6-4.8-65.6-9.1-98.6-7.9
		c-37.6,1.4-79.8,9.7-113.4,26.5c-35.7,17.9-71.4,35.9-107.1,53.8c-23.2,11.6-46.8,23.6-65.1,42c-61.5,61.9-64.6,205.3,27.6,240.8
		c39.2,15.1,81.7,10.5,121.1-1.2c32.7-9.7,61.2-29.7,94.7-37.4c43.3-9.9,90.6-22.3,133.7-5.2c41.4,16.4,75.5,44.7,119.4,56.8
		C719.1,692.4,750.3,694.7,779.4,688.1z"/>
	<g>
		<path d="M780.2,691c27.1-6.3,44.4-28,57-51.4c7.2-13.4,14.2-27.4,18.7-41.9c5.1-16.4,5.9-33.5,3.6-50.4c-1.2-8.4-3-16.7-5.4-24.8
			c-2.4-8-5.1-16-9.1-23.4c-7.3-13.2-18.5-23.5-27.2-35.6c-18.2-25.2-35.2-51.2-56.7-73.8c-22.1-23.2-48.3-40.8-78.2-52.4
			c-30.9-12-63.7-17.9-96.3-22.8c-36.2-5.5-72.9-10.7-109.6-9.1c-32.5,1.4-65.4,7.3-95.8,19.3c-16.3,6.5-31.9,15-47.5,22.9
			c-16.7,8.4-33.4,16.8-50,25.1c-15.8,8-31.8,15.7-47.4,24.1c-14.1,7.6-27.9,16.2-39.8,27c-31.8,28.7-47.3,72.7-49.7,114.6
			c-2.4,40.8,8.3,85.4,38.9,114.2C229.8,694.2,301,689,354,669.5c15.3-5.6,29.9-13,44.7-19.7c7.6-3.4,15.2-6.7,23.1-9.4
			c7.9-2.7,15.9-4.6,24-6.5c33.2-7.7,68.1-15.9,102.2-9.6c31.8,5.9,59.7,25.1,87.7,40.2c13.8,7.4,27.9,14.3,42.7,19.5
			c16.3,5.6,33.5,9.1,50.7,10.4C746.2,695.7,763.4,694.7,780.2,691c3.8-0.8,2.2-6.6-1.6-5.8c-33.6,7.4-69.6,3.5-101.8-8.2
			c-29-10.6-54.8-28-82.3-41.9c-14.3-7.2-29.1-13.8-44.9-16.7c-16.3-3-32.9-2.9-49.3-1c-16.4,1.8-32.5,5.2-48.6,8.9
			c-15.8,3.6-31,7.5-45.9,13.8c-14.8,6.2-29,13.6-43.8,19.8c-15.2,6.4-31.1,10.9-47.2,14c-31.8,6.2-66.1,6.2-96.2-6.9
			c-38.2-16.5-59.2-54.5-64.6-94.4c-5.4-40.5,3-84.4,25.1-118.9c14.2-22.3,34.8-37.8,57.8-50.4c15-8.3,30.5-15.7,45.8-23.4
			c16.5-8.3,33-16.6,49.4-24.8c15.6-7.8,31-16.4,47-23.1c14.7-6.2,30.1-10.7,45.6-14c33.4-7.1,67.5-8.2,101.4-5.3
			c18,1.6,35.9,4.1,53.8,6.7c15.8,2.3,31.7,4.8,47.3,8.1c31.5,6.5,62.8,16.2,90.2,33.5c25.9,16.4,46.8,39.2,65.1,63.5
			c9.3,12.3,18,24.9,26.9,37.5c8.4,11.9,18.8,22.2,26.9,34.3c8.9,13.3,13.4,29.8,16.3,45.4c3.1,16.9,3.2,34.3-1.4,51
			c-4.1,14.8-11.1,28.8-18.2,42.3c-6,11.4-12.9,22.6-22,31.9c-9,9.1-19.9,15.5-32.3,18.4C774.8,686.1,776.4,691.9,780.2,691z"/>
	</g>
</g>
<g>
	<path d="M544,533.9c5.2-9.4,8-20.2,9.8-30.9c3.7-22,10.2-52.2-9.1-67.8c-10.1-8.1-22.7-12.7-35.5-14.8c-14.4-2.3-29.5-1.5-42.8,4.4
		c-19.1,8.5-25.4,22.4-30.8,41.2c-2.5,8.7-5,17.6-5.7,26.7c-1.1,17.2,5,34.8,16.7,47.5c23,25,71.4,29.9,93.2,0.2
		C541.4,538.2,542.8,536.1,544,533.9z"/>
	<g>
		<path d="M545.3,534.7c7.7-14,10.1-30.1,12.4-45.7c1.9-12.9,3.4-27-1.2-39.5c-2.2-6.1-5.8-11.4-10.9-15.5
			c-6.5-5.3-14.1-9.1-22-11.7c-16.1-5.3-34.6-6.5-50.9-1.5c-7,2.2-13.8,5.6-19.5,10.3c-4.7,3.9-8.5,8.9-11.4,14.3
			c-3.1,5.8-5.2,12.1-7.1,18.4c-2.6,8.7-5.1,17.6-6,26.6c-1.6,16,3,32.5,12.6,45.4c7.6,10.2,18.1,17.6,30.1,22
			c11.5,4.2,24.1,5.5,36.2,3.4c11.9-2.1,23.2-7.8,31.1-17.1C541.2,541.3,543.4,538.1,545.3,534.7c0.9-1.7-1.6-3.2-2.6-1.5
			c-3.3,5.9-7.5,11.2-12.8,15.3c-4.5,3.5-9.6,6.1-15,7.9c-11,3.6-23,3.6-34.2,1c-11.2-2.6-21.9-7.9-30.2-15.8
			c-10.8-10.3-17.5-24.8-18.7-39.6c-0.7-8.5,0.6-16.9,2.6-25.2c1.8-7.3,3.9-14.6,6.5-21.6c2.1-5.5,4.7-10.8,8.3-15.4
			c3.8-4.9,8.7-8.8,14.2-11.7c14.6-7.8,32-8.7,48.1-5.7c7.9,1.5,15.7,4,22.8,7.8c6.2,3.3,12.2,7.5,16,13.5
			c6.8,10.6,6.8,24.1,5.6,36.2c-0.6,6.3-1.7,12.6-2.8,18.9c-1.3,7.9-2.8,15.7-5.4,23.2c-1.4,3.9-3,7.7-5,11.4
			C541.8,534.9,544.3,536.4,545.3,534.7z"/>
	</g>
</g>
</svg>
